<svg width="148" height="22" viewBox="0 0 148 22" fill="none" xmlns="http://www.w3.org/2000/svg">
<path fill-rule="evenodd" clip-rule="evenodd" d="M89 5.02857L95.875 16.9714L99.6259 10.4556L98.5381 9.82578L97.1526 12.2326L93.7281 6.28372L100.577 6.28371L99.1648 8.73707L100.253 9.36692L102.75 5.02856L89 5.02857Z" fill="#915BF8"/>
<path fill-rule="evenodd" clip-rule="evenodd" d="M113.502 6.41142V14.4571H115.25V5.02856H113.502H112.75V6.41142H113.502ZM121.391 14.4582V13.0165C121.335 13.1935 121.264 13.3553 121.178 13.5019C120.756 14.2521 120.004 14.4582 119.187 14.4582C118.694 14.4582 118.251 14.3819 117.875 14.2057C117.507 14.0295 117.235 13.8165 117.026 13.4893C116.826 13.1621 116.725 12.7678 116.725 12.3064C116.725 11.8031 116.847 11.392 117.089 11.0732C117.34 10.7544 117.687 10.5153 118.13 10.3559C118.582 10.1965 119.108 10.1168 119.71 10.1168H121.102V10.0539C121.102 9.65955 121.006 9.49163 120.814 9.29867C120.622 9.10571 120.325 9.00924 119.924 9.00924C119.715 9.00924 119.464 9.01343 119.171 9.02182C118.878 9.03021 118.582 9.04279 118.281 9.05957C117.988 9.06796 117.725 9.08055 117.49 9.09733V7.61239C117.683 7.59561 117.9 7.57883 118.143 7.56205C118.551 7.53378 118.96 7.53507 119.369 7.53635C119.454 7.53662 119.54 7.53689 119.625 7.53689C120.327 7.53689 120.893 7.61659 121.353 7.80115C121.822 7.98572 122.173 8.27516 122.407 8.66946C122.649 9.06377 122.77 9.57972 122.77 10.2173V14.4582H121.391ZM121.102 11.1613V11.8031C121.086 12.1722 121.006 12.4658 120.864 12.6839C120.73 12.8937 120.559 13.0447 120.35 13.137C120.149 13.2209 119.928 13.2628 119.685 13.2628C119.284 13.2628 118.975 13.1663 118.757 12.9734C118.548 12.7804 118.444 12.5287 118.444 12.2183C118.444 11.9079 118.548 11.6562 118.757 11.4633C118.975 11.2619 119.284 11.1613 119.685 11.1613H121.102ZM132.925 7.82876C133.328 7.63784 133.792 7.54285 134.319 7.54285C135.009 7.54285 135.589 7.69717 136.055 8.00781C136.528 8.30963 136.883 8.71104 137.119 9.21163C137.355 9.70348 137.473 10.2349 137.473 10.8054V11.4262H132.702C132.73 11.6574 132.784 11.8711 132.862 12.0674C132.984 12.3686 133.171 12.6074 133.424 12.7846C133.675 12.9531 133.996 13.0386 134.389 13.0386C134.783 13.0386 135.1 12.9608 135.343 12.8077C135.588 12.6457 135.742 12.4508 135.81 12.2235L135.816 12.2013H137.375L137.367 12.2389C137.273 12.6837 137.091 13.0735 136.823 13.4077C136.554 13.7421 136.211 14.0006 135.793 14.1833C135.383 14.3661 134.915 14.4571 134.389 14.4571C133.839 14.4571 133.355 14.3622 132.937 14.1713L132.937 14.1712C132.528 13.9808 132.185 13.7267 131.909 13.4086L131.908 13.408C131.641 13.0829 131.436 12.722 131.294 12.3255L131.294 12.325C131.161 11.9287 131.094 11.5243 131.094 11.112V10.888C131.094 10.4601 131.161 10.0478 131.294 9.65143L131.294 9.65109C131.436 9.24658 131.641 8.88932 131.909 8.57959C132.185 8.26162 132.524 8.01133 132.925 7.82876ZM134.319 8.96139C133.965 8.96139 133.667 9.04278 133.423 9.20393C133.179 9.36518 132.992 9.59974 132.861 9.90928C132.805 10.0468 132.762 10.1975 132.731 10.3615H135.853C135.824 10.1738 135.779 10.0034 135.717 9.85002C135.602 9.56453 135.427 9.34574 135.191 9.19226L135.191 9.19201C134.963 9.03902 134.673 8.96139 134.319 8.96139ZM138.869 7.54285V14.4571H140.627V10.8759C140.627 10.2817 140.787 9.82981 141.108 9.52018C141.437 9.20218 141.896 9.04318 142.487 9.04318H143V7.54285H142.714C141.896 7.54285 141.276 7.77536 140.855 8.27746C140.536 8.65658 140.338 9.17166 140.26 9.82271V7.54285H138.869ZM124.249 15.4628V16.9714H125.375C125.939 16.9714 126.406 16.8915 126.785 16.7565C127.172 16.6215 127.487 16.3978 127.731 16.0856C127.975 15.7817 128.164 15.3724 128.299 14.8576L130.375 7.54285H128.688L127.27 12.9569H127.004L125.312 7.54285H123.562L125.812 14.4571H126.875C126.817 14.7008 126.721 14.8463 126.558 15.0475C126.322 15.3572 125.907 15.4628 125.536 15.4628H124.249ZM105.25 7.54285L107.415 14.4571H110.25L112.125 7.54285H110.438L109.005 13.0005H108.705L107.03 7.54285H105.25Z" fill="black"/>
<path d="M12.741 11.312V9.836H14.445C14.789 9.836 15.077 9.768 15.309 9.632C15.549 9.496 15.729 9.308 15.849 9.068C15.977 8.828 16.041 8.552 16.041 8.24C16.041 7.928 15.977 7.652 15.849 7.412C15.729 7.172 15.549 6.988 15.309 6.86C15.077 6.724 14.789 6.656 14.445 6.656H12.741V5.18H14.301C15.037 5.18 15.661 5.3 16.173 5.54C16.693 5.78 17.089 6.124 17.361 6.572C17.633 7.012 17.769 7.536 17.769 8.144V8.336C17.769 8.944 17.633 9.472 17.361 9.92C17.089 10.36 16.693 10.704 16.173 10.952C15.661 11.192 15.037 11.312 14.301 11.312H12.741ZM11.277 14V5.18H12.981V14H11.277ZM22.1216 14.228C21.5456 14.228 21.0376 14.136 20.5976 13.952C20.1576 13.768 19.7856 13.52 19.4816 13.208C19.1776 12.888 18.9456 12.528 18.7856 12.128C18.6336 11.728 18.5576 11.312 18.5576 10.88V10.628C18.5576 10.18 18.6376 9.756 18.7976 9.356C18.9656 8.948 19.2016 8.588 19.5056 8.276C19.8176 7.956 20.1936 7.708 20.6336 7.532C21.0736 7.348 21.5696 7.256 22.1216 7.256C22.6736 7.256 23.1696 7.348 23.6096 7.532C24.0496 7.708 24.4216 7.956 24.7256 8.276C25.0376 8.588 25.2736 8.948 25.4336 9.356C25.5936 9.756 25.6736 10.18 25.6736 10.628V10.88C25.6736 11.312 25.5936 11.728 25.4336 12.128C25.2816 12.528 25.0536 12.888 24.7496 13.208C24.4456 13.52 24.0736 13.768 23.6336 13.952C23.1936 14.136 22.6896 14.228 22.1216 14.228ZM22.1216 12.8C22.5296 12.8 22.8736 12.712 23.1536 12.536C23.4336 12.352 23.6456 12.108 23.7896 11.804C23.9336 11.492 24.0056 11.14 24.0056 10.748C24.0056 10.348 23.9296 9.996 23.7776 9.692C23.6336 9.38 23.4176 9.136 23.1296 8.96C22.8496 8.776 22.5136 8.684 22.1216 8.684C21.7296 8.684 21.3896 8.776 21.1016 8.96C20.8216 9.136 20.6056 9.38 20.4536 9.692C20.3016 9.996 20.2256 10.348 20.2256 10.748C20.2256 11.14 20.2976 11.492 20.4416 11.804C20.5936 12.108 20.8096 12.352 21.0896 12.536C21.3696 12.712 21.7136 12.8 22.1216 12.8ZM29.2655 14L30.5015 7.7H32.4215L33.8495 14H32.5295L31.0775 7.736H31.7735L30.4895 14H29.2655ZM28.7735 14L28.7615 12.632H30.0935V14H28.7735ZM28.1015 14L26.3255 7.484H27.9455L29.6375 14H28.1015ZM32.9495 14V12.632H34.2815L34.2695 14H32.9495ZM33.4775 14L34.9775 7.484H36.4895L34.9175 14H33.4775ZM40.6185 14.228C40.0585 14.228 39.5665 14.132 39.1425 13.94C38.7265 13.748 38.3785 13.492 38.0985 13.172C37.8265 12.844 37.6185 12.48 37.4745 12.08C37.3385 11.68 37.2705 11.272 37.2705 10.856V10.628C37.2705 10.196 37.3385 9.78 37.4745 9.38C37.6185 8.972 37.8265 8.612 38.0985 8.3C38.3785 7.98 38.7225 7.728 39.1305 7.544C39.5385 7.352 40.0105 7.256 40.5465 7.256C41.2505 7.256 41.8385 7.412 42.3105 7.724C42.7905 8.028 43.1505 8.432 43.3905 8.936C43.6305 9.432 43.7505 9.968 43.7505 10.544V11.144H37.9785V10.124H42.7065L42.1905 10.628C42.1905 10.212 42.1305 9.856 42.0105 9.56C41.8905 9.264 41.7065 9.036 41.4585 8.876C41.2185 8.716 40.9145 8.636 40.5465 8.636C40.1785 8.636 39.8665 8.72 39.6105 8.888C39.3545 9.056 39.1585 9.3 39.0225 9.62C38.8945 9.932 38.8305 10.308 38.8305 10.748C38.8305 11.156 38.8945 11.52 39.0225 11.84C39.1505 12.152 39.3465 12.4 39.6105 12.584C39.8745 12.76 40.2105 12.848 40.6185 12.848C41.0265 12.848 41.3585 12.768 41.6145 12.608C41.8705 12.44 42.0345 12.236 42.1065 11.996H43.6425C43.5465 12.444 43.3625 12.836 43.0905 13.172C42.8185 13.508 42.4705 13.768 42.0465 13.952C41.6305 14.136 41.1545 14.228 40.6185 14.228ZM45.1839 14V7.484H46.5039V10.244H46.4679C46.4679 9.308 46.6679 8.6 47.0679 8.12C47.4679 7.64 48.0559 7.4 48.8319 7.4H49.0719V8.852H48.6159C48.0559 8.852 47.6199 9.004 47.3079 9.308C47.0039 9.604 46.8519 10.036 46.8519 10.604V14H45.1839ZM53.0969 14.228C52.5369 14.228 52.0449 14.132 51.6209 13.94C51.2049 13.748 50.8569 13.492 50.5769 13.172C50.3049 12.844 50.0969 12.48 49.9529 12.08C49.8169 11.68 49.7489 11.272 49.7489 10.856V10.628C49.7489 10.196 49.8169 9.78 49.9529 9.38C50.0969 8.972 50.3049 8.612 50.5769 8.3C50.8569 7.98 51.2009 7.728 51.6089 7.544C52.0169 7.352 52.4889 7.256 53.0249 7.256C53.7289 7.256 54.3169 7.412 54.7889 7.724C55.2689 8.028 55.6289 8.432 55.8689 8.936C56.1089 9.432 56.2289 9.968 56.2289 10.544V11.144H50.4569V10.124H55.1849L54.6689 10.628C54.6689 10.212 54.6089 9.856 54.4889 9.56C54.3689 9.264 54.1849 9.036 53.9369 8.876C53.6969 8.716 53.3929 8.636 53.0249 8.636C52.6569 8.636 52.3449 8.72 52.0889 8.888C51.8329 9.056 51.6369 9.3 51.5009 9.62C51.3729 9.932 51.3089 10.308 51.3089 10.748C51.3089 11.156 51.3729 11.52 51.5009 11.84C51.6289 12.152 51.8249 12.4 52.0889 12.584C52.3529 12.76 52.6889 12.848 53.0969 12.848C53.5049 12.848 53.8369 12.768 54.0929 12.608C54.3489 12.44 54.5129 12.236 54.5849 11.996H56.1209C56.0249 12.444 55.8409 12.836 55.5689 13.172C55.2969 13.508 54.9489 13.768 54.5249 13.952C54.1089 14.136 53.6329 14.228 53.0969 14.228ZM60.3623 14.216C59.9063 14.216 59.4863 14.132 59.1023 13.964C58.7183 13.796 58.3863 13.56 58.1063 13.256C57.8263 12.952 57.6103 12.6 57.4583 12.2C57.3063 11.792 57.2303 11.352 57.2303 10.88V10.628C57.2303 10.164 57.3023 9.728 57.4463 9.32C57.5983 8.912 57.8063 8.556 58.0703 8.252C58.3423 7.948 58.6663 7.712 59.0423 7.544C59.4263 7.368 59.8503 7.28 60.3143 7.28C60.8263 7.28 61.2743 7.392 61.6583 7.616C62.0503 7.832 62.3623 8.16 62.5943 8.6C62.8263 9.04 62.9543 9.592 62.9783 10.256L62.4863 9.68V5.24H64.1543V14H62.8343V11.228H63.1223C63.0983 11.892 62.9623 12.448 62.7143 12.896C62.4663 13.336 62.1383 13.668 61.7303 13.892C61.3303 14.108 60.8743 14.216 60.3623 14.216ZM60.7343 12.812C61.0623 12.812 61.3623 12.74 61.6343 12.596C61.9063 12.444 62.1223 12.228 62.2823 11.948C62.4503 11.66 62.5343 11.324 62.5343 10.94V10.46C62.5343 10.076 62.4503 9.756 62.2823 9.5C62.1143 9.236 61.8943 9.036 61.6223 8.9C61.3503 8.756 61.0543 8.684 60.7343 8.684C60.3743 8.684 60.0543 8.772 59.7743 8.948C59.5023 9.116 59.2863 9.356 59.1263 9.668C58.9743 9.98 58.8983 10.344 58.8983 10.76C58.8983 11.176 58.9783 11.54 59.1383 11.852C59.2983 12.156 59.5143 12.392 59.7863 12.56C60.0663 12.728 60.3823 12.812 60.7343 12.812ZM72.5508 14.216C72.0148 14.216 71.5428 14.104 71.1348 13.88C70.7268 13.648 70.4068 13.312 70.1748 12.872C69.9428 12.432 69.8148 11.9 69.7908 11.276H70.0428V14H68.7228V5.24H70.3908V9.62L69.9468 10.304C69.9788 9.632 70.1108 9.072 70.3428 8.624C70.5828 8.176 70.9028 7.84 71.3028 7.616C71.7028 7.392 72.1548 7.28 72.6588 7.28C73.1068 7.28 73.5148 7.364 73.8828 7.532C74.2508 7.7 74.5668 7.936 74.8308 8.24C75.0948 8.536 75.2948 8.884 75.4308 9.284C75.5748 9.684 75.6468 10.12 75.6468 10.592V10.844C75.6468 11.316 75.5748 11.756 75.4308 12.164C75.2868 12.572 75.0788 12.932 74.8068 13.244C74.5348 13.548 74.2068 13.788 73.8228 13.964C73.4468 14.132 73.0228 14.216 72.5508 14.216ZM72.1788 12.812C72.5388 12.812 72.8508 12.724 73.1148 12.548C73.3868 12.364 73.5988 12.116 73.7508 11.804C73.9028 11.492 73.9788 11.132 73.9788 10.724C73.9788 10.308 73.9028 9.948 73.7508 9.644C73.5988 9.34 73.3868 9.104 73.1148 8.936C72.8508 8.768 72.5388 8.684 72.1788 8.684C71.8508 8.684 71.5468 8.756 71.2668 8.9C70.9948 9.044 70.7708 9.256 70.5948 9.536C70.4268 9.816 70.3428 10.152 70.3428 10.544V11.024C70.3428 11.4 70.4308 11.72 70.6068 11.984C70.7828 12.248 71.0108 12.452 71.2908 12.596C71.5708 12.74 71.8668 12.812 72.1788 12.812ZM76.8208 16.568V15.14H78.0448C78.2768 15.14 78.4688 15.108 78.6208 15.044C78.7808 14.988 78.9128 14.892 79.0168 14.756C79.1208 14.628 79.2008 14.448 79.2568 14.216L81.0088 7.484H82.6048L80.6728 14.576C80.5448 15.064 80.3648 15.452 80.1328 15.74C79.9008 16.036 79.6008 16.248 79.2328 16.376C78.8728 16.504 78.4248 16.568 77.8888 16.568H76.8208ZM78.8488 13.856V12.536H80.2408V13.856H78.8488ZM78.2848 13.856L76.1728 7.484H77.8528L79.8568 13.856H78.2848Z" fill="#000509" fill-opacity="0.890196"/>
</svg>
