<svg width="40" height="40" viewBox="0 0 40 40" fill="none" xmlns="http://www.w3.org/2000/svg">
<circle cx="20" cy="20" r="20" fill="#F4F0FE"/>
<g clip-path="url(#clip0_89_899)">
<path d="M20.8511 7.65409H19.1484V7.417C19.1484 7.40241 19.1603 7.3905 19.1749 7.3905H20.8246C20.8392 7.3905 20.8511 7.40241 20.8511 7.417V7.65409Z" fill="url(#paint0_linear_89_899)" fill-opacity="0.4" stroke="url(#paint1_linear_89_899)"/>
<path d="M19.1484 32.5834V32.3463H20.8511V32.5834C20.8511 32.598 20.8392 32.6099 20.8246 32.6099H19.1749C19.1603 32.6099 19.1484 32.598 19.1484 32.5834Z" fill="url(#paint2_linear_89_899)" fill-opacity="0.4" stroke="url(#paint3_linear_89_899)"/>
<path d="M7.65372 19.1489V20.8516H7.41663C7.40204 20.8516 7.39014 20.8397 7.39014 20.8251V19.1754C7.39014 19.1608 7.40204 19.1489 7.41663 19.1489H7.65372Z" fill="url(#paint4_linear_89_899)" fill-opacity="0.4" stroke="url(#paint5_linear_89_899)"/>
<path d="M32.5833 20.8516H32.3462V19.1489H32.5833C32.5979 19.1489 32.6098 19.1608 32.6098 19.1754V20.8251C32.6098 20.8397 32.5979 20.8516 32.5833 20.8516Z" fill="url(#paint6_linear_89_899)" fill-opacity="0.4" stroke="url(#paint7_linear_89_899)"/>
<path opacity="0.8" d="M8.62744 20.0002C8.62744 13.7192 13.7192 8.62756 20.0001 8.62756C26.2809 8.62756 31.3727 13.7192 31.3727 20.0002C31.3727 26.2811 26.2809 31.3728 20.0001 31.3728C13.7192 31.3728 8.62744 26.2811 8.62744 20.0002ZM12.0068 20.0002C12.0068 24.4147 15.5855 27.9934 20.0001 27.9934C24.4146 27.9934 27.9933 24.4147 27.9933 20.0002C27.9933 15.5856 24.4146 12.007 20.0001 12.007C15.5855 12.007 12.0068 15.5856 12.0068 20.0002Z" fill="url(#paint8_linear_89_899)" fill-opacity="0.3" stroke="url(#paint9_linear_89_899)" stroke-width="2"/>
<path d="M26.5575 15.4296C26.0425 14.6922 25.4064 14.046 24.678 13.5195L27.057 11.0818C27.8564 11.7154 28.5687 12.4544 29.173 13.2775L26.5575 15.4296Z" fill="url(#paint10_linear_89_899)" fill-opacity="0.7" stroke="url(#paint11_linear_89_899)" stroke-width="2"/>
<path d="M15.3222 13.5195C14.5937 14.046 13.9576 14.6922 13.4427 15.4296L10.8272 13.2775C11.4315 12.4544 12.1438 11.7154 12.9432 11.0818L15.3222 13.5195Z" fill="url(#paint12_linear_89_899)" fill-opacity="0.7" stroke="url(#paint13_linear_89_899)" stroke-width="2"/>
<path d="M27.057 28.9185L24.678 26.4809C25.4065 25.9544 26.0426 25.3082 26.5575 24.5707L29.1729 26.7228C28.5687 27.546 27.8564 28.2849 27.057 28.9185Z" fill="url(#paint14_linear_89_899)" fill-opacity="0.7" stroke="url(#paint15_linear_89_899)" stroke-width="2"/>
<path d="M10.8273 26.7228L13.4427 24.5707C13.9577 25.3082 14.5938 25.9543 15.3222 26.4808L12.9432 28.9185C12.1438 28.2849 11.4315 27.546 10.8273 26.7228Z" fill="url(#paint16_linear_89_899)" fill-opacity="0.7" stroke="url(#paint17_linear_89_899)" stroke-width="2"/>
</g>
<defs>
<linearGradient id="paint0_linear_89_899" x1="20.6264" y1="7.67517" x2="18.2467" y2="7.67517" gradientUnits="userSpaceOnUse">
<stop stop-color="#0720FF"/>
<stop offset="1" stop-color="#0038FF" stop-opacity="0"/>
</linearGradient>
<linearGradient id="paint1_linear_89_899" x1="21.5328" y1="7.42835" x2="18.4475" y2="7.42835" gradientUnits="userSpaceOnUse">
<stop stop-color="#3D1EFE"/>
<stop offset="1" stop-color="#3316E4" stop-opacity="0.2"/>
</linearGradient>
<linearGradient id="paint2_linear_89_899" x1="20.6264" y1="32.631" x2="18.2467" y2="32.631" gradientUnits="userSpaceOnUse">
<stop stop-color="#0720FF"/>
<stop offset="1" stop-color="#0038FF" stop-opacity="0"/>
</linearGradient>
<linearGradient id="paint3_linear_89_899" x1="21.5328" y1="32.3842" x2="18.4475" y2="32.3842" gradientUnits="userSpaceOnUse">
<stop stop-color="#3D1EFE"/>
<stop offset="1" stop-color="#3316E4" stop-opacity="0.2"/>
</linearGradient>
<linearGradient id="paint4_linear_89_899" x1="7.81488" y1="20.3273" x2="6.70232" y2="20.3273" gradientUnits="userSpaceOnUse">
<stop stop-color="#0720FF"/>
<stop offset="1" stop-color="#0038FF" stop-opacity="0"/>
</linearGradient>
<linearGradient id="paint5_linear_89_899" x1="8.23865" y1="19.7993" x2="6.79619" y2="19.7993" gradientUnits="userSpaceOnUse">
<stop stop-color="#3D1EFE"/>
<stop offset="1" stop-color="#3316E4" stop-opacity="0.2"/>
</linearGradient>
<linearGradient id="paint6_linear_89_899" x1="32.7709" y1="20.3273" x2="31.6584" y2="20.3273" gradientUnits="userSpaceOnUse">
<stop stop-color="#0720FF"/>
<stop offset="1" stop-color="#0038FF" stop-opacity="0"/>
</linearGradient>
<linearGradient id="paint7_linear_89_899" x1="33.1947" y1="19.7993" x2="31.7522" y2="19.7993" gradientUnits="userSpaceOnUse">
<stop stop-color="#3D1EFE"/>
<stop offset="1" stop-color="#3316E4" stop-opacity="0.2"/>
</linearGradient>
<linearGradient id="paint8_linear_89_899" x1="24.6978" y1="20.0545" x2="7.62744" y2="20.0545" gradientUnits="userSpaceOnUse">
<stop stop-color="#915BF8"/>
<stop offset="1" stop-color="#270E56" stop-opacity="0"/>
</linearGradient>
<linearGradient id="paint9_linear_89_899" x1="32.3566" y1="20.1448" x2="6.40625" y2="20.1448" gradientUnits="userSpaceOnUse">
<stop stop-color="#915BF8"/>
<stop offset="1" stop-color="#5A03FF" stop-opacity="0.3"/>
</linearGradient>
<linearGradient id="paint10_linear_89_899" x1="28.5189" y1="14.2217" x2="21.9784" y2="14.2217" gradientUnits="userSpaceOnUse">
<stop stop-color="#0720FF"/>
<stop offset="1" stop-color="#0038FF" stop-opacity="0"/>
</linearGradient>
<linearGradient id="paint11_linear_89_899" x1="31.0102" y1="12.8188" x2="22.5302" y2="12.8188" gradientUnits="userSpaceOnUse">
<stop stop-color="#3D1EFE"/>
<stop offset="1" stop-color="#3316E4" stop-opacity="0.2"/>
</linearGradient>
<linearGradient id="paint12_linear_89_899" x1="14.9256" y1="14.2217" x2="8.38513" y2="14.2217" gradientUnits="userSpaceOnUse">
<stop stop-color="#0720FF"/>
<stop offset="1" stop-color="#0038FF" stop-opacity="0"/>
</linearGradient>
<linearGradient id="paint13_linear_89_899" x1="17.4169" y1="12.8188" x2="8.93695" y2="12.8188" gradientUnits="userSpaceOnUse">
<stop stop-color="#3D1EFE"/>
<stop offset="1" stop-color="#3316E4" stop-opacity="0.2"/>
</linearGradient>
<linearGradient id="paint14_linear_89_899" x1="28.5189" y1="27.5165" x2="21.9784" y2="27.5165" gradientUnits="userSpaceOnUse">
<stop stop-color="#0720FF"/>
<stop offset="1" stop-color="#0038FF" stop-opacity="0"/>
</linearGradient>
<linearGradient id="paint15_linear_89_899" x1="31.0102" y1="26.1136" x2="22.5302" y2="26.1136" gradientUnits="userSpaceOnUse">
<stop stop-color="#3D1EFE"/>
<stop offset="1" stop-color="#3316E4" stop-opacity="0.2"/>
</linearGradient>
<linearGradient id="paint16_linear_89_899" x1="14.9256" y1="27.5165" x2="8.38513" y2="27.5165" gradientUnits="userSpaceOnUse">
<stop stop-color="#0720FF"/>
<stop offset="1" stop-color="#0038FF" stop-opacity="0"/>
</linearGradient>
<linearGradient id="paint17_linear_89_899" x1="17.4169" y1="26.1136" x2="8.93695" y2="26.1136" gradientUnits="userSpaceOnUse">
<stop stop-color="#3D1EFE"/>
<stop offset="1" stop-color="#3316E4" stop-opacity="0.2"/>
</linearGradient>
<clipPath id="clip0_89_899">
<rect width="26.9565" height="26.9565" fill="white" transform="translate(6.52148 6.52197)"/>
</clipPath>
</defs>
</svg>
