<svg width="121" height="24" viewBox="0 0 121 24" fill="none" xmlns="http://www.w3.org/2000/svg">
    <path fill-rule="evenodd" clip-rule="evenodd" d="M12 24C5.37258 24 -8.1423e-07 18.6274 -5.24537e-07 12C-2.34843e-07 5.37258 5.37258 -8.1423e-07 12 -5.24537e-07C18.6274 -2.34843e-07 24 5.37258 24 12C24 18.6274 18.6274 24 12 24ZM21.4737 12C21.4737 16.3835 18.4966 20.0716 14.4541 21.1527C13.9857 21.278 13.5494 20.9069 13.5494 20.4221L13.5494 19.6366C13.5494 19.6365 13.5493 19.6364 13.5491 19.6364C13.549 19.6364 13.5489 19.6362 13.5489 19.6361L13.5489 12.0003C13.5489 12.0001 13.549 12 13.5491 12C13.5493 12 13.5494 11.9999 13.5494 11.9997L13.5494 11.6862C13.5494 11.0158 12.9877 10.4723 12.2949 10.4723C11.602 10.4723 11.0403 11.0158 11.0403 11.6862L11.0403 14.7959C11.0403 15.5761 10.3015 16.1563 9.64187 15.7395C8.40223 14.9564 7.57893 13.5739 7.57893 11.9992C7.57893 9.55753 9.55831 7.57816 12 7.57816C14.4417 7.57816 16.421 9.55753 16.421 11.9992C16.421 12.0549 16.42 12.1103 16.418 12.1655L16.418 14.7725C16.418 15.8043 17.564 16.286 18.0677 15.3855C18.628 14.3836 18.9474 13.2287 18.9474 11.9992C18.9474 8.16229 15.8369 5.05185 12 5.05185C8.16306 5.05185 5.05262 8.16229 5.05262 11.9992C5.05262 15.1416 7.13897 17.7968 10.0021 18.655C10.5858 18.83 11.0403 19.3347 11.0403 19.9442L11.0403 20.0764C11.0403 20.7987 10.4129 21.3694 9.71184 21.1955C5.58511 20.172 2.52631 16.4432 2.52632 12C2.52632 6.76783 6.76783 2.52631 12 2.52632C17.2322 2.52632 21.4737 6.76783 21.4737 12Z" fill="black"/>
    <path d="M42.296 18H33.314V5.4H42.134V7.344H35.456V10.584H41.504V12.474H35.456V16.056H42.296V18ZM49.4299 18H47.2159L43.2379 8.46H45.5419L48.3319 15.498L51.1039 8.46H53.4079L49.4299 18ZM57.4644 18.198C55.2684 18.198 53.8284 17.136 53.8464 15.354C53.8644 13.122 56.0784 12.654 57.9324 12.438C59.3724 12.276 60.4344 12.222 60.4524 11.466C60.4344 10.53 59.7144 9.918 58.4904 9.918C57.2304 9.918 56.3304 10.602 56.2044 11.592H54.0624C54.2604 9.576 56.0604 8.172 58.5264 8.172C61.1004 8.172 62.5224 9.576 62.5224 11.61V15.93C62.5224 16.2 62.6664 16.344 62.9904 16.344H63.5124V18H62.5044C61.5324 18 60.9384 17.604 60.7764 16.884C60.7404 16.794 60.7044 16.668 60.6864 16.56C60.1284 17.586 59.0844 18.198 57.4644 18.198ZM57.8964 16.524C59.3544 16.524 60.4524 15.696 60.4524 14.418V13.086C60.0924 13.644 59.1744 13.77 58.1664 13.896C56.9784 14.04 55.9884 14.202 55.9884 15.21C55.9884 16.038 56.6544 16.524 57.8964 16.524ZM67.038 18H64.914V8.46H66.624L66.804 9.864C67.398 8.874 68.604 8.172 70.026 8.172C72.06 8.172 73.392 9.54 73.392 11.682V18H71.268V11.79C71.268 10.728 70.566 10.026 69.378 10.026C67.992 10.026 67.056 10.98 67.038 12.222V18ZM79.7817 21.888C77.1177 21.888 75.2817 20.592 75.2817 18.54H77.4057C77.4057 19.44 78.3597 20.16 79.7817 20.16C81.4737 20.16 82.3557 19.152 82.3557 17.712V16.362C81.7437 17.28 80.6817 17.856 79.3137 17.856C76.7577 17.856 74.9217 15.876 74.9217 13.032C74.9217 10.17 76.7577 8.172 79.2957 8.172C80.7897 8.172 81.9957 8.874 82.5897 9.936L82.7697 8.46H84.4617V17.712C84.4617 20.232 82.6797 21.888 79.7817 21.888ZM79.7277 16.074C81.2757 16.074 82.3557 14.814 82.3557 13.014C82.3557 11.214 81.2757 9.972 79.7277 9.972C78.1797 9.972 77.1177 11.214 77.1177 13.032C77.1177 14.832 78.1797 16.074 79.7277 16.074ZM91.0154 18.27C88.0994 18.27 86.1014 16.182 86.1014 13.266C86.1014 10.116 88.1714 8.172 90.8354 8.172C93.5354 8.172 95.3354 10.062 95.3894 13.158V13.662H88.2254C88.3694 15.336 89.4134 16.47 91.0334 16.47C92.1314 16.47 92.9594 15.93 93.2834 14.976H95.3534C94.8674 17.028 93.2654 18.27 91.0154 18.27ZM88.3154 12.168H93.1934C92.9234 10.8 92.0774 9.972 90.8354 9.972C89.5754 9.972 88.6394 10.8 88.3154 12.168ZM99.2068 18H97.0828V4.5H99.2068V18ZM102.468 7.182C101.694 7.182 101.1 6.57 101.1 5.796C101.1 5.022 101.694 4.428 102.468 4.428C103.26 4.428 103.836 5.022 103.836 5.796C103.836 6.57 103.26 7.182 102.468 7.182ZM103.53 18H101.406V8.46H103.53V18ZM109.493 18.27C106.883 18.27 105.335 17.046 105.209 14.958H107.261C107.333 15.984 108.215 16.524 109.385 16.524C110.465 16.524 111.041 16.11 111.041 15.372C111.041 14.634 110.429 14.49 109.601 14.22L108.341 13.806C106.757 13.284 105.389 12.744 105.389 10.98C105.389 9.288 106.685 8.172 108.971 8.172C111.185 8.172 112.697 9.342 112.949 11.502H110.933C110.825 10.422 110.051 9.918 108.953 9.918C108.017 9.918 107.477 10.314 107.477 10.962C107.477 11.7 108.305 11.898 108.989 12.132L110.141 12.51C112.031 13.14 113.165 13.716 113.165 15.426C113.165 17.19 111.833 18.27 109.493 18.27ZM119.886 18H118.662C116.592 18 115.476 16.974 115.476 15.084V10.26H113.802V8.46H115.476V5.202H117.6V8.46H120.066V10.26H117.6V14.94C117.6 15.75 118.014 16.2 118.806 16.2H119.886V18Z" fill="black"/>
</svg>
