<svg width="283" height="157" viewBox="0 0 283 157" fill="none" xmlns="http://www.w3.org/2000/svg">
<g clip-path="url(#clip0_630_902)">
<path d="M141.628 113.053L141.628 135.096" stroke="#3D1EFE" stroke-width="1.48812" stroke-linecap="square"/>
<circle cx="141.657" cy="139.003" r="3.19238" transform="rotate(-55 141.657 139.003)" fill="url(#paint0_linear_630_902)" fill-opacity="0.9" stroke="url(#paint1_linear_630_902)" stroke-width="1.48794"/>
<path d="M155.012 107.663L169.77 125.329L166.314 130.081" stroke="#3D1EFE" stroke-width="1.48812" stroke-linecap="square"/>
<circle cx="164.288" cy="132.647" r="3.19238" transform="rotate(-55 164.288 132.647)" fill="url(#paint2_linear_630_902)" fill-opacity="0.9" stroke="url(#paint3_linear_630_902)" stroke-width="1.48794"/>
<path d="M128.245 107.663L113.487 125.329L116.943 130.081" stroke="#3D1EFE" stroke-width="1.48812" stroke-linecap="square"/>
<circle cx="3.93635" cy="3.93635" r="3.19238" transform="matrix(-0.573576 -0.819152 -0.819152 0.573576 124.451 133.613)" fill="url(#paint4_linear_630_902)" fill-opacity="0.9" stroke="url(#paint5_linear_630_902)" stroke-width="1.48794"/>
<path d="M141.629 53.1061L141.629 31.0625" stroke="#3D1EFE" stroke-width="1.48812" stroke-linecap="square"/>
<circle cx="141.6" cy="27.1553" r="3.19238" transform="rotate(125 141.6 27.1553)" fill="url(#paint6_linear_630_902)" fill-opacity="0.9" stroke="url(#paint7_linear_630_902)" stroke-width="1.48794"/>
<path d="M128.245 58.496L113.487 40.8301L116.943 36.0777" stroke="#3D1EFE" stroke-width="1.48812" stroke-linecap="square"/>
<circle cx="118.969" cy="33.512" r="3.19238" transform="rotate(125 118.969 33.512)" fill="url(#paint8_linear_630_902)" fill-opacity="0.9" stroke="url(#paint9_linear_630_902)" stroke-width="1.48794"/>
<path d="M155.012 58.4962L169.77 40.8302L166.314 36.0778" stroke="#3D1EFE" stroke-width="1.48812" stroke-linecap="square"/>
<circle cx="3.93635" cy="3.93635" r="3.19238" transform="matrix(0.573576 0.819152 0.819152 -0.573576 158.805 32.5454)" fill="url(#paint10_linear_630_902)" fill-opacity="0.9" stroke="url(#paint11_linear_630_902)" stroke-width="1.48794"/>
<path d="M169.889 83.0796L201.094 83.0796" stroke="#3D1EFE" stroke-width="1.48812" stroke-linecap="square"/>
<circle cx="205.002" cy="83.0504" r="3.19238" transform="rotate(-145 205.002 83.0504)" fill="url(#paint12_linear_630_902)" fill-opacity="0.9" stroke="url(#paint13_linear_630_902)" stroke-width="1.48794"/>
<path d="M168.663 73.1934L191.327 54.9382L196.079 58.3944" stroke="#3D1EFE" stroke-width="1.48812" stroke-linecap="square"/>
<circle cx="198.645" cy="60.4196" r="3.19238" transform="rotate(-145 198.645 60.4196)" fill="url(#paint14_linear_630_902)" fill-opacity="0.9" stroke="url(#paint15_linear_630_902)" stroke-width="1.48794"/>
<path d="M167.744 93.2671L191.327 111.221L196.079 107.764" stroke="#3D1EFE" stroke-width="1.48812" stroke-linecap="square"/>
<circle cx="3.93635" cy="3.93635" r="3.19238" transform="matrix(-0.819152 0.573576 0.573576 0.819152 199.612 100.257)" fill="url(#paint16_linear_630_902)" fill-opacity="0.9" stroke="url(#paint17_linear_630_902)" stroke-width="1.48794"/>
<path d="M114.095 83.0785L82.8899 83.0785" stroke="#3D1EFE" stroke-width="1.48812" stroke-linecap="square"/>
<circle cx="78.9823" cy="83.1076" r="3.19238" transform="rotate(35 78.9823 83.1076)" fill="url(#paint18_linear_630_902)" fill-opacity="0.9" stroke="url(#paint19_linear_630_902)" stroke-width="1.48794"/>
<path d="M115.321 92.9647L92.6575 111.22L87.9052 107.764" stroke="#3D1EFE" stroke-width="1.48812" stroke-linecap="square"/>
<circle cx="85.3391" cy="105.738" r="3.19238" transform="rotate(35 85.3391 105.738)" fill="url(#paint20_linear_630_902)" fill-opacity="0.9" stroke="url(#paint21_linear_630_902)" stroke-width="1.48794"/>
<path d="M116.241 72.891L92.6574 54.9374L87.9051 58.3936" stroke="#3D1EFE" stroke-width="1.48812" stroke-linecap="square"/>
<circle cx="3.93635" cy="3.93635" r="3.19238" transform="matrix(0.819152 -0.573576 -0.573576 -0.819152 84.3724 65.901)" fill="url(#paint22_linear_630_902)" fill-opacity="0.9" stroke="url(#paint23_linear_630_902)" stroke-width="1.48794"/>
<path opacity="0.8" d="M99.4361 115.565V50.5921L141.992 35.0598L184.548 50.5921V115.565L141.992 131.097L99.4361 115.565Z" fill="url(#paint24_linear_630_902)" fill-opacity="0.3" stroke="url(#paint25_linear_630_902)" stroke-width="1.48812"/>
<g filter="url(#filter0_b_630_902)">
<path d="M107.352 56.3785L141.598 43.7149L175.844 56.3785V108.991L141.598 121.655L107.352 108.991V56.3785Z" fill="url(#paint26_linear_630_902)" fill-opacity="0.6"/>
<path d="M108.096 108.473V56.8967L141.598 44.5082L175.1 56.8967V108.473L141.598 120.861L108.096 108.473Z" stroke="url(#paint27_linear_630_902)" stroke-width="1.48812"/>
</g>
<path d="M119.218 90.3018V74.21H125.941L131.298 87.0394H132.069L131.628 87.4362V74.21H135.464V90.3018H128.697L123.34 77.4725H122.569L123.009 77.0757V90.3018H119.218ZM140.044 90.3018V74.21H144.144V90.3018H140.044ZM143.703 84.0635V80.7129H149.677V84.0635H143.703ZM143.703 77.5606V74.21H149.919V77.5606H143.703ZM157.092 90.3018V77.3402H161.192V90.3018H157.092ZM152.683 77.7811V74.21H165.601V77.7811H152.683Z" fill="white"/>
<circle opacity="0.2" cx="57.4759" cy="125.888" r="3.44619" fill="url(#paint28_linear_630_902)" fill-opacity="0.3" stroke="url(#paint29_linear_630_902)" stroke-width="1.48856"/>
<circle opacity="0.2" cx="237.883" cy="107.028" r="3.44619" fill="url(#paint30_linear_630_902)" fill-opacity="0.3" stroke="url(#paint31_linear_630_902)" stroke-width="1.48856"/>
<circle opacity="0.2" cx="199.824" cy="21.6699" r="3.44619" fill="url(#paint32_linear_630_902)" fill-opacity="0.3" stroke="url(#paint33_linear_630_902)" stroke-width="1.48856"/>
<circle opacity="0.2" cx="71.844" cy="25.8603" r="3.44619" fill="url(#paint34_linear_630_902)" fill-opacity="0.3" stroke="url(#paint35_linear_630_902)" stroke-width="1.48856"/>
</g>
<defs>
<filter id="filter0_b_630_902" x="105.368" y="41.7308" width="72.4609" height="81.9081" filterUnits="userSpaceOnUse" color-interpolation-filters="sRGB">
<feFlood flood-opacity="0" result="BackgroundImageFix"/>
<feGaussianBlur in="BackgroundImageFix" stdDeviation="0.992077"/>
<feComposite in2="SourceAlpha" operator="in" result="effect1_backgroundBlur_630_902"/>
<feBlend mode="normal" in="SourceGraphic" in2="effect1_backgroundBlur_630_902" result="shape"/>
</filter>
<linearGradient id="paint0_linear_630_902" x1="143.482" y1="139.956" x2="136.551" y2="139.956" gradientUnits="userSpaceOnUse">
<stop stop-color="#0720FF"/>
<stop offset="1" stop-color="#0038FF" stop-opacity="0"/>
</linearGradient>
<linearGradient id="paint1_linear_630_902" x1="146.123" y1="138.418" x2="137.135" y2="138.418" gradientUnits="userSpaceOnUse">
<stop stop-color="#3D1EFE"/>
<stop offset="1" stop-color="#3316E4" stop-opacity="0.2"/>
</linearGradient>
<linearGradient id="paint2_linear_630_902" x1="166.113" y1="133.599" x2="159.181" y2="133.599" gradientUnits="userSpaceOnUse">
<stop stop-color="#0720FF"/>
<stop offset="1" stop-color="#0038FF" stop-opacity="0"/>
</linearGradient>
<linearGradient id="paint3_linear_630_902" x1="168.753" y1="132.061" x2="159.766" y2="132.061" gradientUnits="userSpaceOnUse">
<stop stop-color="#3D1EFE"/>
<stop offset="1" stop-color="#3316E4" stop-opacity="0.2"/>
</linearGradient>
<linearGradient id="paint4_linear_630_902" x1="5.76153" y1="4.88884" x2="-1.17016" y2="4.88884" gradientUnits="userSpaceOnUse">
<stop stop-color="#0720FF"/>
<stop offset="1" stop-color="#0038FF" stop-opacity="0"/>
</linearGradient>
<linearGradient id="paint5_linear_630_902" x1="8.40181" y1="3.35101" x2="-0.58534" y2="3.35101" gradientUnits="userSpaceOnUse">
<stop stop-color="#3D1EFE"/>
<stop offset="1" stop-color="#3316E4" stop-opacity="0.2"/>
</linearGradient>
<linearGradient id="paint6_linear_630_902" x1="143.425" y1="28.1078" x2="136.493" y2="28.1078" gradientUnits="userSpaceOnUse">
<stop stop-color="#0720FF"/>
<stop offset="1" stop-color="#0038FF" stop-opacity="0"/>
</linearGradient>
<linearGradient id="paint7_linear_630_902" x1="146.065" y1="26.5699" x2="137.078" y2="26.5699" gradientUnits="userSpaceOnUse">
<stop stop-color="#3D1EFE"/>
<stop offset="1" stop-color="#3316E4" stop-opacity="0.2"/>
</linearGradient>
<linearGradient id="paint8_linear_630_902" x1="120.794" y1="34.4645" x2="113.863" y2="34.4645" gradientUnits="userSpaceOnUse">
<stop stop-color="#0720FF"/>
<stop offset="1" stop-color="#0038FF" stop-opacity="0"/>
</linearGradient>
<linearGradient id="paint9_linear_630_902" x1="123.434" y1="32.9266" x2="114.447" y2="32.9266" gradientUnits="userSpaceOnUse">
<stop stop-color="#3D1EFE"/>
<stop offset="1" stop-color="#3316E4" stop-opacity="0.2"/>
</linearGradient>
<linearGradient id="paint10_linear_630_902" x1="5.76153" y1="4.88884" x2="-1.17016" y2="4.88884" gradientUnits="userSpaceOnUse">
<stop stop-color="#0720FF"/>
<stop offset="1" stop-color="#0038FF" stop-opacity="0"/>
</linearGradient>
<linearGradient id="paint11_linear_630_902" x1="8.40181" y1="3.35101" x2="-0.58534" y2="3.35101" gradientUnits="userSpaceOnUse">
<stop stop-color="#3D1EFE"/>
<stop offset="1" stop-color="#3316E4" stop-opacity="0.2"/>
</linearGradient>
<linearGradient id="paint12_linear_630_902" x1="206.827" y1="84.0029" x2="199.896" y2="84.0029" gradientUnits="userSpaceOnUse">
<stop stop-color="#0720FF"/>
<stop offset="1" stop-color="#0038FF" stop-opacity="0"/>
</linearGradient>
<linearGradient id="paint13_linear_630_902" x1="209.468" y1="82.4651" x2="200.481" y2="82.4651" gradientUnits="userSpaceOnUse">
<stop stop-color="#3D1EFE"/>
<stop offset="1" stop-color="#3316E4" stop-opacity="0.2"/>
</linearGradient>
<linearGradient id="paint14_linear_630_902" x1="200.47" y1="61.3721" x2="193.539" y2="61.3721" gradientUnits="userSpaceOnUse">
<stop stop-color="#0720FF"/>
<stop offset="1" stop-color="#0038FF" stop-opacity="0"/>
</linearGradient>
<linearGradient id="paint15_linear_630_902" x1="203.111" y1="59.8342" x2="194.123" y2="59.8342" gradientUnits="userSpaceOnUse">
<stop stop-color="#3D1EFE"/>
<stop offset="1" stop-color="#3316E4" stop-opacity="0.2"/>
</linearGradient>
<linearGradient id="paint16_linear_630_902" x1="5.76153" y1="4.88884" x2="-1.17016" y2="4.88884" gradientUnits="userSpaceOnUse">
<stop stop-color="#0720FF"/>
<stop offset="1" stop-color="#0038FF" stop-opacity="0"/>
</linearGradient>
<linearGradient id="paint17_linear_630_902" x1="8.40181" y1="3.35101" x2="-0.58534" y2="3.35101" gradientUnits="userSpaceOnUse">
<stop stop-color="#3D1EFE"/>
<stop offset="1" stop-color="#3316E4" stop-opacity="0.2"/>
</linearGradient>
<linearGradient id="paint18_linear_630_902" x1="80.8075" y1="84.0601" x2="73.8758" y2="84.0601" gradientUnits="userSpaceOnUse">
<stop stop-color="#0720FF"/>
<stop offset="1" stop-color="#0038FF" stop-opacity="0"/>
</linearGradient>
<linearGradient id="paint19_linear_630_902" x1="83.4478" y1="82.5223" x2="74.4606" y2="82.5223" gradientUnits="userSpaceOnUse">
<stop stop-color="#3D1EFE"/>
<stop offset="1" stop-color="#3316E4" stop-opacity="0.2"/>
</linearGradient>
<linearGradient id="paint20_linear_630_902" x1="87.1643" y1="106.691" x2="80.2326" y2="106.691" gradientUnits="userSpaceOnUse">
<stop stop-color="#0720FF"/>
<stop offset="1" stop-color="#0038FF" stop-opacity="0"/>
</linearGradient>
<linearGradient id="paint21_linear_630_902" x1="89.8046" y1="105.153" x2="80.8174" y2="105.153" gradientUnits="userSpaceOnUse">
<stop stop-color="#3D1EFE"/>
<stop offset="1" stop-color="#3316E4" stop-opacity="0.2"/>
</linearGradient>
<linearGradient id="paint22_linear_630_902" x1="5.76153" y1="4.88884" x2="-1.17016" y2="4.88884" gradientUnits="userSpaceOnUse">
<stop stop-color="#0720FF"/>
<stop offset="1" stop-color="#0038FF" stop-opacity="0"/>
</linearGradient>
<linearGradient id="paint23_linear_630_902" x1="8.40181" y1="3.35101" x2="-0.58534" y2="3.35101" gradientUnits="userSpaceOnUse">
<stop stop-color="#3D1EFE"/>
<stop offset="1" stop-color="#3316E4" stop-opacity="0.2"/>
</linearGradient>
<linearGradient id="paint24_linear_630_902" x1="158.432" y1="83.2237" x2="98.692" y2="83.2237" gradientUnits="userSpaceOnUse">
<stop stop-color="#915BF8"/>
<stop offset="1" stop-color="#270E56" stop-opacity="0"/>
</linearGradient>
<linearGradient id="paint25_linear_630_902" x1="185.236" y1="83.4645" x2="94.4183" y2="83.4646" gradientUnits="userSpaceOnUse">
<stop stop-color="#915BF8"/>
<stop offset="1" stop-color="#5A03FF" stop-opacity="0.3"/>
</linearGradient>
<linearGradient id="paint26_linear_630_902" x1="157.477" y1="89.0502" x2="97.1715" y2="89.0502" gradientUnits="userSpaceOnUse">
<stop stop-color="#0720FF"/>
<stop offset="1" stop-color="#0038FF" stop-opacity="0"/>
</linearGradient>
<linearGradient id="paint27_linear_630_902" x1="180.448" y1="78.773" x2="102.259" y2="78.773" gradientUnits="userSpaceOnUse">
<stop stop-color="#3D1EFE"/>
<stop offset="1" stop-color="#3316E4" stop-opacity="0.2"/>
</linearGradient>
<linearGradient id="paint28_linear_630_902" x1="59.0669" y1="125.906" x2="53.2854" y2="125.906" gradientUnits="userSpaceOnUse">
<stop stop-color="#915BF8"/>
<stop offset="1" stop-color="#270E56" stop-opacity="0"/>
</linearGradient>
<linearGradient id="paint29_linear_630_902" x1="61.6609" y1="125.937" x2="52.8718" y2="125.937" gradientUnits="userSpaceOnUse">
<stop stop-color="#915BF8"/>
<stop offset="1" stop-color="#5A03FF" stop-opacity="0.3"/>
</linearGradient>
<linearGradient id="paint30_linear_630_902" x1="239.475" y1="107.047" x2="233.693" y2="107.047" gradientUnits="userSpaceOnUse">
<stop stop-color="#915BF8"/>
<stop offset="1" stop-color="#270E56" stop-opacity="0"/>
</linearGradient>
<linearGradient id="paint31_linear_630_902" x1="242.068" y1="107.077" x2="233.279" y2="107.077" gradientUnits="userSpaceOnUse">
<stop stop-color="#915BF8"/>
<stop offset="1" stop-color="#5A03FF" stop-opacity="0.3"/>
</linearGradient>
<linearGradient id="paint32_linear_630_902" x1="201.415" y1="21.6883" x2="195.634" y2="21.6883" gradientUnits="userSpaceOnUse">
<stop stop-color="#915BF8"/>
<stop offset="1" stop-color="#270E56" stop-opacity="0"/>
</linearGradient>
<linearGradient id="paint33_linear_630_902" x1="204.009" y1="21.7189" x2="195.22" y2="21.7189" gradientUnits="userSpaceOnUse">
<stop stop-color="#915BF8"/>
<stop offset="1" stop-color="#5A03FF" stop-opacity="0.3"/>
</linearGradient>
<linearGradient id="paint34_linear_630_902" x1="73.4351" y1="25.8787" x2="67.6536" y2="25.8787" gradientUnits="userSpaceOnUse">
<stop stop-color="#915BF8"/>
<stop offset="1" stop-color="#270E56" stop-opacity="0"/>
</linearGradient>
<linearGradient id="paint35_linear_630_902" x1="76.0291" y1="25.9093" x2="67.24" y2="25.9093" gradientUnits="userSpaceOnUse">
<stop stop-color="#915BF8"/>
<stop offset="1" stop-color="#5A03FF" stop-opacity="0.3"/>
</linearGradient>
<clipPath id="clip0_630_902">
<rect width="282" height="156" fill="white" transform="translate(0.5 0.5)"/>
</clipPath>
</defs>
</svg>
